<svg xmlns="http://www.w3.org/2000/svg" height="24" viewBox="0 -960 960 960" width="24"><path d="M480-360q-50 0-85-35t-35-85q0-50 35-85t85-35h160v60H480q-25 0-42.5 17.5T420-480q0 25 17.5 42.5T480-420h100v-60h60v120H480ZM480-160q-66 0-124.5-25T253-253q-43-43-68-101.5T160-480q0-66 25-124.5T253-707q43-43 101.5-68T480-800q66 0 124.5 25T707-707q43 43 68 101.5T800-480q0 66-25 124.5T707-253q-43 43-101.5 68T480-160Zm0-60q109 0 184.5-75.5T740-480q0-109-75.5-184.5T480-740q-109 0-184.5 75.5T220-480q0 109 75.5 184.5T480-220Zm0-260Z"/></svg>
